<svg width="14" height="10" viewBox="0 0 14 10" fill="none" xmlns="http://www.w3.org/2000/svg">
<path d="M6.0303 1.53033C6.3232 1.23744 6.3232 0.762558 6.0303 0.469668C5.7374 0.176777 5.2626 0.176777 4.96967 0.469668L0.96967 4.4697C0.82322 4.6161 0.75 4.8081 0.75 5C0.75 5.1017 0.77024 5.1987 0.80691 5.2871C0.84351 5.3755 0.89776 5.4584 0.96967 5.5303L4.96967 9.5303C5.2626 9.8232 5.7374 9.8232 6.0303 9.5303C6.3232 9.2374 6.3232 8.7626 6.0303 8.4697L3.31066 5.75H13C13.4142 5.75 13.75 5.4142 13.75 5C13.75 4.5858 13.4142 4.25 13 4.25H3.31066L6.0303 1.53033Z" fill="#013A52"/>
</svg>
