<svg width="25" height="25" viewBox="0 0 25 25" fill="none" xmlns="http://www.w3.org/2000/svg">
<path fill-rule="evenodd" clip-rule="evenodd" d="M8.77734 12.2844C8.77734 10.2134 10.4563 8.53442 12.5273 8.53442C14.5984 8.53442 16.2773 10.2134 16.2773 12.2844C16.2773 14.3555 14.5984 16.0344 12.5273 16.0344C10.4563 16.0344 8.77734 14.3555 8.77734 12.2844ZM12.5273 10.0344C11.2847 10.0344 10.2773 11.0418 10.2773 12.2844C10.2773 13.527 11.2847 14.5344 12.5273 14.5344C13.7699 14.5344 14.7773 13.527 14.7773 12.2844C14.7773 11.0418 13.7699 10.0344 12.5273 10.0344Z" fill="white"/>
<path fill-rule="evenodd" clip-rule="evenodd" d="M4.85077 10.9308C4.43165 11.5347 4.27734 12.0071 4.27734 12.2844C4.27734 12.5617 4.43165 13.0341 4.85077 13.638C5.25591 14.2218 5.85812 14.8547 6.62001 15.4394C8.14712 16.6115 10.2408 17.5344 12.5273 17.5344C14.8138 17.5344 16.9075 16.6115 18.4346 15.4394C19.1965 14.8547 19.7987 14.2218 20.2039 13.638C20.623 13.0341 20.7773 12.5617 20.7773 12.2844C20.7773 12.0071 20.623 11.5347 20.2039 10.9308C19.7987 10.347 19.1965 9.71414 18.4346 9.12939C16.9075 7.95734 14.8138 7.03442 12.5273 7.03442C10.2408 7.03442 8.14712 7.95734 6.62001 9.12939C5.85812 9.71414 5.25591 10.347 4.85077 10.9308ZM5.70675 7.93945C7.43699 6.6115 9.84332 5.53442 12.5273 5.53442C15.2113 5.53442 17.6176 6.6115 19.3479 7.93945C20.2147 8.6047 20.9305 9.34686 21.4362 10.0756C21.9279 10.7841 22.2773 11.5617 22.2773 12.2844C22.2773 13.0071 21.9279 13.7847 21.4362 14.4933C20.9305 15.222 20.2147 15.9641 19.3479 16.6294C17.6176 17.9573 15.2113 19.0344 12.5273 19.0344C9.84332 19.0344 7.43699 17.9573 5.70675 16.6294C4.83996 15.9641 4.12415 15.222 3.61844 14.4933C3.12671 13.7847 2.77734 13.0071 2.77734 12.2844C2.77734 11.5617 3.12671 10.7841 3.61844 10.0756C4.12415 9.34686 4.83996 8.6047 5.70675 7.93945Z" fill="white"/>
</svg>
