<svg width="14" height="16" viewBox="0 0 14 16" fill="none" xmlns="http://www.w3.org/2000/svg">
<path d="M12.598 0.167969C12.8267 0.391927 12.8267 0.755044 12.598 0.979002L12.1681 1.3999C14.7369 4.32934 14.6041 8.74738 11.7696 11.5224C10.4316 12.8323 8.71988 13.5528 6.97056 13.6841V14.853H8.3374C8.66091 14.853 8.92319 15.1098 8.92319 15.4265C8.92319 15.7432 8.66091 16 8.3374 16H4.43215C4.10864 16 3.84637 15.7432 3.84637 15.4265C3.84637 15.1098 4.10864 14.853 4.43215 14.853H5.79899V13.6841C4.232 13.5664 2.69505 12.9759 1.42993 11.9126L0.999999 12.3335C0.771237 12.5574 0.400333 12.5574 0.171571 12.3335C-0.0571904 12.1095 -0.0571904 11.7464 0.171571 11.5224L0.723859 10.9818C1.11081 10.6029 1.71212 10.6223 2.08883 10.9528C3.3088 12.0231 4.8455 12.5585 6.38243 12.5591H6.38728C8.03552 12.5584 9.68361 11.9425 10.9411 10.7114C13.3724 8.3311 13.4547 4.52149 11.1877 2.04497C10.8501 1.67617 10.8303 1.08749 11.2173 0.70866L11.7696 0.167969C11.9983 -0.0559896 12.3693 -0.0559896 12.598 0.167969Z" fill="#B3BEC5"/>
<path fill-rule="evenodd" clip-rule="evenodd" d="M1.11265 6.25072C1.11265 3.40017 3.47304 1.08934 6.38473 1.08934C9.2964 1.08934 11.6568 3.40017 11.6568 6.25072C11.6568 9.10126 9.2964 11.4121 6.38473 11.4121C3.47304 11.4121 1.11265 9.10126 1.11265 6.25072ZM6.38473 2.23631C4.12008 2.23631 2.28422 4.03362 2.28422 6.25072C2.28422 6.50673 2.30871 6.75715 2.3555 6.99992C2.67676 6.6569 3.13826 6.44188 3.65106 6.44188C4.62162 6.44188 5.40842 7.21219 5.40842 8.16234C5.40842 8.86758 4.97495 9.47379 4.3546 9.73936C4.95316 10.074 5.64617 10.2651 6.38473 10.2651C8.37125 10.2651 10.0278 8.88219 10.4048 7.04611C9.88258 7.83309 8.9768 8.35351 7.94683 8.35351C6.3292 8.35351 5.0179 7.06974 5.0179 5.48607C5.0179 3.90243 6.3292 2.61864 7.94683 2.61864C8.01439 2.61864 8.0814 2.62088 8.14779 2.62528C7.61371 2.37591 7.0159 2.23631 6.38473 2.23631ZM6.18947 5.48607C6.18947 4.53589 6.9763 3.76561 7.94683 3.76561C8.91736 3.76561 9.70419 4.53589 9.70419 5.48607C9.70419 6.43622 8.91736 7.20653 7.94683 7.20653C6.9763 7.20653 6.18947 6.43622 6.18947 5.48607ZM3.65106 7.58886C3.32754 7.58886 3.06527 7.84563 3.06527 8.16234C3.06527 8.47906 3.32754 8.73583 3.65106 8.73583C3.97458 8.73583 4.23685 8.47906 4.23685 8.16234C4.23685 7.84563 3.97458 7.58886 3.65106 7.58886Z" fill="#B3BEC5"/>
</svg>
