<svg width="32" height="31" viewBox="0 0 32 31" fill="none" xmlns="http://www.w3.org/2000/svg">
<path d="M18.8242 11.625C18.8242 10.5549 19.6917 9.6875 20.7617 9.6875C21.8317 9.6875 22.6992 10.5549 22.6992 11.625C22.6992 12.6951 21.8317 13.5625 20.7617 13.5625C19.6917 13.5625 18.8242 12.6951 18.8242 11.625Z" fill="black"/>
<path fill-rule="evenodd" clip-rule="evenodd" d="M24.6773 24.7636L22.904 22.9902L22.1873 23.0525C18.2314 23.3963 14.2531 23.3963 10.2973 23.0525L8.34656 22.8829C7.37222 22.7981 6.58289 22.0567 6.43746 21.0895C6.34117 20.4492 6.26152 19.8072 6.19852 19.1638L11.6799 13.6823L16.164 18.7269C16.4215 19.0165 16.8267 19.1249 17.1945 19.0023L18.4857 18.5719L11.3083 11.3945C11.2083 11.4417 11.1162 11.506 11.0364 11.5858L6.03525 16.5869C5.97074 14.3568 6.10481 12.1225 6.43746 9.91033C6.569 9.0356 7.22726 8.3455 8.07274 8.15895L6.58311 6.66932C5.49897 7.26342 4.71444 8.33914 4.5215 9.62223C3.93554 13.5188 3.93554 17.4811 4.5215 21.3777C4.80011 23.2305 6.31222 24.6508 8.17877 24.8131L10.1295 24.9826C14.197 25.3363 18.2875 25.3363 22.3551 24.9826L24.3057 24.8131C24.4313 24.8022 24.5553 24.7856 24.6773 24.7636ZM11.4833 5.91268C15.1039 5.66803 18.7385 5.70289 22.3551 6.01726L24.3057 6.18683C26.1723 6.34909 27.6845 7.76947 27.9631 9.62223C28.549 13.5188 28.549 17.4811 27.9631 21.3777C27.921 21.6575 27.8508 21.9275 27.7555 22.1848L26.1238 20.5531C26.603 17.0208 26.5774 13.4373 26.047 9.91033C25.9016 8.9432 25.1123 8.20175 24.138 8.11706L22.1873 7.94749C19.2386 7.69116 16.2774 7.6259 13.3224 7.75171L11.4833 5.91268Z" fill="black"/>
<path d="M6.24219 3L28.2422 25.5" stroke="black" stroke-width="2" stroke-linecap="round"/>
</svg>
