<svg width="14" height="14" viewBox="0 0 14 14" fill="none" xmlns="http://www.w3.org/2000/svg">
<path fill-rule="evenodd" clip-rule="evenodd" d="M3.25145 0.4375C3.56211 0.4375 3.81395 0.689342 3.81395 1V2.25072C5.93473 2.06185 8.06818 2.06185 10.189 2.25072V1C10.189 0.689342 10.4408 0.4375 10.7515 0.4375C11.0621 0.4375 11.314 0.689342 11.314 1V2.36233C12.4337 2.52066 13.3184 3.40635 13.4681 4.53613L13.5331 5.02584C13.8061 7.08558 13.7825 9.1738 13.463 11.2269C13.3048 12.2439 12.4786 13.0251 11.4542 13.1261L10.5595 13.2144C8.1932 13.4477 5.8097 13.4477 3.4434 13.2144L2.54864 13.1261C1.52434 13.0251 0.698091 12.2439 0.539834 11.2269C0.220364 9.1738 0.196784 7.08558 0.469814 5.02584L0.534726 4.53613C0.684486 3.40634 1.56915 2.52063 2.68895 2.36232V1C2.68895 0.689342 2.94079 0.4375 3.25145 0.4375ZM3.58532 3.4021C5.85725 3.17806 8.14565 3.17806 10.4176 3.4021L11.0966 3.46907C11.7467 3.53318 12.2671 4.0364 12.3529 4.68395L12.4178 5.17367C12.4405 5.34475 12.461 5.51605 12.4794 5.6875H1.5235C1.54186 5.51605 1.56238 5.34476 1.58506 5.17368L1.64997 4.68395C1.73581 4.0364 2.25617 3.53318 2.90623 3.46907L3.58532 3.4021ZM1.43407 6.8125C1.36044 8.22858 1.43299 9.6499 1.65145 11.0539C1.73083 11.564 2.14527 11.9558 2.65905 12.0065L3.55381 12.0947C5.84668 12.3209 8.15623 12.3209 10.4491 12.0947L11.3438 12.0065C11.8576 11.9558 12.272 11.564 12.3514 11.0539C12.5699 9.6499 12.6424 8.22858 12.5688 6.8125H1.43407Z" fill="#169FD8"/>
</svg>
