<svg width="24" height="24" viewBox="0 0 24 24" fill="none" xmlns="http://www.w3.org/2000/svg">
<path fill-rule="evenodd" clip-rule="evenodd" d="M7.25 10C7.25 7.37665 9.37665 5.25 12 5.25C14.6233 5.25 16.75 7.37665 16.75 10C16.75 12.6234 14.6233 14.75 12 14.75C9.37665 14.75 7.25 12.6234 7.25 10ZM12 6.75C10.2051 6.75 8.75 8.20507 8.75 10C8.75 11.7949 10.2051 13.25 12 13.25C13.7949 13.25 15.25 11.7949 15.25 10C15.25 8.20507 13.7949 6.75 12 6.75Z" fill="#169FD8"/>
<path fill-rule="evenodd" clip-rule="evenodd" d="M3.52439 8.85685C3.87872 4.55824 7.47087 1.25 11.784 1.25H12.216C16.5292 1.25 20.1213 4.55824 20.4756 8.85685C20.666 11.166 19.9527 13.4589 18.486 15.2526L13.693 21.1144C12.818 22.1845 11.182 22.1845 10.307 21.1144L5.51399 15.2526C4.04733 13.4589 3.33405 11.166 3.52439 8.85685ZM11.784 2.75C8.25152 2.75 5.30951 5.45948 5.01932 8.98008C4.8609 10.9019 5.45455 12.8102 6.67521 14.3031L11.4682 20.1649C11.7431 20.501 12.2569 20.501 12.5318 20.1649L17.3248 14.3031C18.5455 12.8102 19.1391 10.9019 18.9807 8.98008C18.6905 5.45948 15.7485 2.75 12.216 2.75H11.784Z" fill="#169FD8"/>
</svg>
