<svg width="28" height="28" viewBox="0 0 28 28" fill="none" xmlns="http://www.w3.org/2000/svg">
<path fill-rule="evenodd" clip-rule="evenodd" d="M8.45825 11.6667C8.45825 8.60609 10.9393 6.125 13.9999 6.125C17.0604 6.125 19.5416 8.60609 19.5416 11.6667C19.5416 14.7273 17.0604 17.2083 13.9999 17.2083C10.9393 17.2083 8.45825 14.7273 8.45825 11.6667ZM13.9999 7.875C11.9059 7.875 10.2083 9.57258 10.2083 11.6667C10.2083 13.7607 11.9059 15.4583 13.9999 15.4583C16.094 15.4583 17.7916 13.7607 17.7916 11.6667C17.7916 9.57258 16.094 7.875 13.9999 7.875Z" fill="#169FD8"/>
<path fill-rule="evenodd" clip-rule="evenodd" d="M4.11171 10.333C4.52509 5.31793 8.71593 1.45831 13.748 1.45831H14.252C19.284 1.45831 23.4748 5.31793 23.8882 10.333C24.1103 13.027 23.2781 15.702 21.567 17.7947L15.9751 24.6334C14.9543 25.8819 13.0456 25.8819 12.0248 24.6334L6.43291 17.7947C4.7218 15.702 3.88964 13.027 4.11171 10.333ZM13.748 3.20831C9.62669 3.20831 6.19435 6.36937 5.85579 10.4767C5.67097 12.7189 6.36356 14.9452 7.78766 16.6869L13.3795 23.5257C13.7002 23.9178 14.2997 23.9178 14.6204 23.5257L20.2122 16.6869C21.6364 14.9452 22.3289 12.7189 22.1441 10.4767C21.8055 6.36937 18.3732 3.20831 14.252 3.20831H13.748Z" fill="#169FD8"/>
</svg>
