<svg width="14" height="22" viewBox="0 0 14 22" fill="none" xmlns="http://www.w3.org/2000/svg">
<path fill-rule="evenodd" clip-rule="evenodd" d="M13.6304 9.50007L13.6239 9.74287L13.6304 10.0001L13.6243 10.2433L13.6304 10.5001L13.6245 10.745L13.6304 11.0001L13.468 18.1031C13.4295 19.7884 12.1477 21.184 10.4718 21.3655C8.08439 21.624 5.67599 21.624 3.28856 21.3655C1.61265 21.184 0.330883 19.7884 0.292363 18.1031L0.129973 11.0001L0.135843 10.7433L0.129993 10.5001L0.136153 10.2443L0.129943 10.0001L0.136453 9.74397L0.129883 9.50007L0.293893 3.40211C0.296183 3.31703 0.302163 3.23283 0.311683 3.14968L0.315413 3.11452L0.318373 3.08618C0.398983 2.26208 0.855663 1.54332 1.52118 1.11199C1.57084 1.07897 1.62165 1.04752 1.67357 1.01772C1.72435 0.987673 1.77618 0.959172 1.829 0.932282C2.1556 0.759922 2.52009 0.648202 2.90809 0.612482C5.55059 0.369242 8.20979 0.369242 10.8522 0.612492C11.2396 0.648142 11.6036 0.759562 11.9298 0.931462C11.9826 0.958312 12.0344 0.986772 12.0852 1.01678C12.1388 1.04747 12.1912 1.07992 12.2423 1.11403C12.9043 1.5444 13.359 2.25943 13.4413 3.07938L13.4491 3.15368C13.4584 3.23554 13.4642 3.3184 13.4664 3.40211L13.6304 9.50007ZM11.9544 3.32073L12.1114 10.1874L11.9842 14.9177C11.9556 15.981 11.1365 16.8551 10.0772 16.9526C7.95029 17.1484 5.80999 17.1484 3.68311 16.9526C2.62384 16.8551 1.80473 15.981 1.77613 14.9177L1.64893 10.188L1.80592 3.32073C1.80626 3.30595 1.80687 3.29124 1.80776 3.2766C1.86724 2.87432 2.10037 2.52708 2.43092 2.31621C2.55614 2.25093 2.69508 2.20764 2.84288 2.19164C5.52659 1.90101 8.23379 1.90101 10.9175 2.19164C11.0652 2.20764 11.2041 2.2509 11.3293 2.31613C11.66 2.52705 11.8932 2.87446 11.9526 3.27693C11.9535 3.29147 11.9541 3.30607 11.9544 3.32073ZM6.88019 20.7001C7.70859 20.7001 8.38019 20.0285 8.38019 19.2001C8.38019 18.3716 7.70859 17.7001 6.88019 17.7001C6.05179 17.7001 5.38019 18.3716 5.38019 19.2001C5.38019 20.0285 6.05179 20.7001 6.88019 20.7001Z" fill="white"/>
</svg>
