<svg width="23" height="22" viewBox="0 0 23 22" fill="none" xmlns="http://www.w3.org/2000/svg">
<path fill-rule="evenodd" clip-rule="evenodd" d="M2.96246 8.548C5.30948 13.4392 9.48597 17.328 14.6778 19.4351L14.6942 19.4417L15.6972 19.8696C16.9745 20.4142 18.4757 20.0274 19.2946 18.9427L20.968 16.7261C21.0702 16.5907 21.0438 16.4025 20.908 16.2975L17.9867 14.0418C17.8414 13.9297 17.6278 13.9559 17.5167 14.0993L16.3798 15.5677C16.1036 15.9244 15.6049 16.0483 15.1824 15.8653C11.3002 14.1837 8.18052 11.198 6.42361 7.48244C6.23239 7.07805 6.36187 6.60079 6.73447 6.33651L8.26873 5.24831C8.41866 5.14197 8.44596 4.93759 8.32877 4.79859L5.97161 2.0022C5.86206 1.87222 5.66542 1.84698 5.52396 1.94472L3.19535 3.55361C2.0545 4.34185 1.65274 5.79072 2.23507 7.01665L2.96169 8.54636C2.96195 8.54692 2.96221 8.54746 2.96246 8.548ZM13.9005 21.1673C8.25924 18.8754 3.72182 14.6489 1.17162 9.33292L1.17009 9.32978L0.441945 7.79685C-0.528605 5.75364 0.140997 3.33884 2.04243 2.02511L4.37103 0.416223C5.3613 -0.267983 6.73778 -0.0912667 7.50465 0.818507L9.8618 3.61492C10.682 4.58788 10.4909 6.01859 9.44146 6.76291L8.5623 7.38648C10.0475 10.1443 12.401 12.397 15.2826 13.8183L15.9342 12.9768C16.7119 11.9725 18.2067 11.7897 19.2234 12.5747L22.1448 14.8302C23.0956 15.5644 23.2801 16.8824 22.5646 17.8302L20.8911 20.0468C19.5263 21.8546 17.0243 22.4994 14.8956 21.5916L13.9005 21.1673Z" fill="#169FD8"/>
</svg>
