<svg width="24" height="24" viewBox="0 0 24 24" fill="none" xmlns="http://www.w3.org/2000/svg">
<path fill-rule="evenodd" clip-rule="evenodd" d="M15.1801 16.5942C11.6463 19.4245 6.47377 19.2017 3.19805 15.926C-0.316668 12.4113 -0.316668 6.71283 3.19805 3.19811C6.71277 -0.316607 12.4113 -0.316607 15.9259 3.19811C19.2017 6.47382 19.4245 11.6464 16.5942 15.1801L23.4685 22.0542C23.859 22.4448 23.859 23.078 23.4685 23.4685C23.0779 23.859 22.4447 23.859 22.0542 23.4685L15.1801 16.5942ZM4.61226 14.5118C1.8786 11.7781 1.8786 7.34599 4.61226 4.61233C7.34594 1.87866 11.7781 1.87866 14.5118 4.61233C17.2434 7.34399 17.2454 11.7716 14.5178 14.5058C14.5158 14.5078 14.5138 14.5097 14.5117 14.5118C14.5097 14.5138 14.5077 14.5158 14.5058 14.5178C11.7715 17.2454 7.34393 17.2434 4.61226 14.5118Z" fill="white"/>
</svg>
