<svg width="24" height="24" viewBox="0 0 24 24" fill="none" xmlns="http://www.w3.org/2000/svg">
<path fill-rule="evenodd" clip-rule="evenodd" d="M2.80378 8.35318C2.52364 10.9561 2.53613 13.9581 2.92595 16.5504C3.14165 17.9848 4.31232 19.0844 5.75739 19.2101L7.26762 19.3413C10.4167 19.6151 13.5835 19.6151 16.7326 19.3413L18.2428 19.2101C19.6879 19.0844 20.8586 17.9848 21.0743 16.5504C21.4641 13.9581 21.4766 10.9563 21.1964 8.35333C21.1602 8.05157 21.1195 7.75022 21.0743 7.44937C20.8586 6.01498 19.6879 4.91533 18.2428 4.78971L16.7326 4.65843C13.5835 4.38469 10.4167 4.38469 7.26762 4.65843L5.75739 4.78971C4.31232 4.91533 3.14165 6.01498 2.92595 7.44937C2.88072 7.75016 2.84 8.05147 2.80378 8.35318ZM7.39752 6.1528C10.4601 5.88657 13.5401 5.88657 16.6027 6.1528L18.1129 6.28408C18.8672 6.34965 19.4783 6.92367 19.5909 7.67242C19.6026 7.75018 19.614 7.82797 19.6251 7.9058L14.0641 10.9953C12.7805 11.7084 11.2197 11.7084 9.93608 10.9953L4.37514 7.90584C4.3862 7.828 4.39758 7.75019 4.40927 7.67242C4.52187 6.92367 5.13296 6.34965 5.88729 6.28408L7.39752 6.1528ZM19.8086 9.51977C20.0026 11.7875 19.93 14.0724 19.5909 16.3273C19.4783 17.0761 18.8672 17.6501 18.1129 17.7157L16.6027 17.847C13.5401 18.1132 10.4601 18.1132 7.39752 17.847L5.88729 17.7157C5.13296 17.6501 4.52187 17.0761 4.40927 16.3273C4.07018 14.0724 3.99762 11.7876 4.19159 9.5198L9.20761 12.3065C10.9443 13.2713 13.0559 13.2713 14.7925 12.3065L19.8086 9.51977Z" fill="#39C6FF"/>
</svg>
