<svg width="24" height="25" viewBox="0 0 24 25" fill="none" xmlns="http://www.w3.org/2000/svg">
<path fill-rule="evenodd" clip-rule="evenodd" d="M5.83998 10.3564C7.6273 14.2482 10.8078 17.3424 14.7615 19.019L14.774 19.0243L15.5378 19.3647C16.5105 19.7981 17.6537 19.4903 18.2773 18.6272L19.5517 16.8635C19.6295 16.7558 19.6094 16.606 19.506 16.5225L17.2813 14.7277C17.1707 14.6385 17.008 14.6593 16.9234 14.7734L16.0576 15.9418C15.8473 16.2256 15.4675 16.3242 15.1458 16.1786C12.1894 14.8406 9.81367 12.4649 8.47574 9.50851C8.33012 9.18674 8.42872 8.80699 8.71247 8.59671L9.88085 7.73085C9.99502 7.64624 10.0158 7.48362 9.92657 7.37302L8.13153 5.14798C8.0481 5.04456 7.89836 5.02448 7.79063 5.10225L6.01733 6.38241C5.14854 7.0096 4.84259 8.16244 5.28605 9.13789L5.83939 10.3551C5.83959 10.3555 5.83979 10.3559 5.83998 10.3564ZM14.1696 20.3973C9.87362 18.5737 6.41825 15.2107 4.47621 10.9809L4.47504 10.9784L3.92054 9.75868C3.18144 8.13293 3.69136 6.21152 5.13935 5.16621L6.91264 3.88605C7.66676 3.34164 8.71499 3.48225 9.29898 4.20614L11.094 6.43119C11.7186 7.20536 11.5731 8.34375 10.7739 8.93599L10.1044 9.43215C11.2354 11.6265 13.0277 13.4189 15.2221 14.5498L15.7183 13.8803C16.3105 13.0812 17.4489 12.9357 18.2231 13.5603L20.4478 15.355C21.1719 15.9392 21.3124 16.9879 20.7675 17.742L19.4931 19.5057C18.4538 20.9442 16.5484 21.4572 14.9274 20.7349L14.1696 20.3973Z" fill="#169FD8"/>
</svg>
