<svg width="24" height="24" viewBox="0 0 24 24" fill="none" xmlns="http://www.w3.org/2000/svg">
<path d="M22.84 11.46C22.65 11.16 18 4 12 4C6.00004 4 1.35004 11.16 1.16004 11.46C1.05666 11.6211 1.00171 11.8086 1.00171 12C1.00171 12.1914 1.05666 12.3789 1.16004 12.54C1.35004 12.84 6.00004 20 12 20C18 20 22.65 12.84 22.84 12.54C22.9434 12.3789 22.9984 12.1914 22.9984 12C22.9984 11.8086 22.9434 11.6211 22.84 11.46ZM12 18C7.94004 18 4.36004 13.57 3.22004 12C4.36004 10.43 7.94004 6 12 6C16.06 6 19.64 10.43 20.78 12C19.64 13.57 16.06 18 12 18Z" fill="#12100B"/>
<path d="M12 8C11.2089 8 10.4356 8.2346 9.77776 8.67412C9.11997 9.11365 8.60728 9.73836 8.30453 10.4693C8.00177 11.2002 7.92256 12.0044 8.0769 12.7804C8.23124 13.5563 8.61221 14.269 9.17162 14.8284C9.73103 15.3878 10.4438 15.7688 11.2197 15.9231C11.9956 16.0775 12.7999 15.9983 13.5308 15.6955C14.2617 15.3928 14.8864 14.8801 15.3259 14.2223C15.7654 13.5645 16 12.7911 16 12C16 10.9391 15.5786 9.92172 14.8285 9.17157C14.0783 8.42143 13.0609 8 12 8ZM12 14C11.6045 14 11.2178 13.8827 10.8889 13.6629C10.56 13.4432 10.3037 13.1308 10.1523 12.7654C10.0009 12.3999 9.9613 11.9978 10.0385 11.6098C10.1156 11.2219 10.3061 10.8655 10.5858 10.5858C10.8655 10.3061 11.2219 10.1156 11.6099 10.0384C11.9978 9.96126 12.4 10.0009 12.7654 10.1522C13.1309 10.3036 13.4432 10.56 13.663 10.8889C13.8827 11.2178 14 11.6044 14 12C14 12.5304 13.7893 13.0391 13.4143 13.4142C13.0392 13.7893 12.5305 14 12 14Z" fill="#12100B"/>
</svg>
